<?xml version="1.0" encoding="UTF-8" standalone="no"?>
<!-- Created with Inkscape (http://www.inkscape.org/) -->
<svg xmlns:svg="http://www.w3.org/2000/svg" xmlns="http://www.w3.org/2000/svg" version="1.0" width="1133.8583" height="221.45668" id="svg2">
  <defs id="defs4"/>
  <g transform="translate(-338.559, -241.73)" id="layer1">
    <g transform="translate(35.4331, 35.3516)" id="g2668">
      <path d="M 1335.0659,392.40203 L 1198.678,392.48361 L 1316.6214,241.81162 L 1386.5163,241.73004 L 1335.0659,392.40203" id="path2436" style="fill:#f1471c;fill-opacity:1;fill-rule:nonzero;stroke:none"/>
      <path d="M 1391.5741,241.81162 L 1401.5509,241.81162 L 1349.6356,392.48361 L 1339.7403,392.48361 L 1391.5741,241.81162" id="path2440" style="fill:#00a650;fill-opacity:1;fill-rule:nonzero;stroke:none"/>
      <path d="M 1338.4758,328.44597 C 1337.0645,336.31811 1332.4065,343.05634 1325.9456,347.24122 L 1325.7825,299.50259 C 1332.2678,303.62221 1336.9666,310.32781 1338.435,318.15916 L 1348.8442,318.17548 C 1346.3072,299.38023 1330.2039,284.89222 1310.7153,284.89222 C 1291.2185,284.89222 1275.1153,299.39654 1272.5864,318.18363 L 1282.7263,318.17548 C 1282.7427,318.08574 1282.8079,317.81654 1282.8242,317.7268 C 1284.3497,310.2136 1288.8528,303.7772 1295.0526,299.71469 L 1295.0934,347.15149 C 1288.6814,342.96661 1284.0887,336.25285 1282.6856,328.42965 L 1272.5782,328.41334 C 1275.0418,347.28201 1291.1695,361.85159 1310.7153,361.85159 C 1330.2529,361.85159 1346.3806,347.29017 1348.8768,328.42965 L 1338.4758,328.44597 z M 1310.5848,352.00529 C 1308.7982,352.00529 1307.0606,351.83398 1305.3639,351.52399 L 1305.372,295.80717 C 1307.0606,295.49718 1308.7982,295.32587 1310.5848,295.32587 C 1312.2979,295.32587 1313.9865,295.48086 1315.618,295.77454 L 1315.618,351.55662 C 1313.9947,351.8503 1312.2979,352.00529 1310.5848,352.00529" id="path2444" style="fill:#ffffff;fill-opacity:1;fill-rule:nonzero;stroke:none"/>
      <path d="M 1338.4758,328.44597 C 1337.0645,336.31811 1332.4065,343.05634 1325.9456,347.24122 L 1325.7825,299.50259 C 1332.2678,303.62221 1336.9666,310.32781 1338.435,318.15916 L 1348.8442,318.17548 C 1346.3072,299.38023 1330.2039,284.89222 1310.7153,284.89222 C 1291.2185,284.89222 1275.1153,299.39654 1272.5864,318.18363 L 1282.7263,318.17548 C 1282.7427,318.08574 1282.8079,317.81654 1282.8242,317.7268 C 1284.3497,310.2136 1288.8528,303.7772 1295.0526,299.71469 L 1295.0934,347.15149 C 1288.6814,342.96661 1284.0887,336.25285 1282.6856,328.42965 L 1272.5782,328.41334 C 1275.0418,347.28201 1291.1695,361.85159 1310.7153,361.85159 C 1330.2529,361.85159 1346.3806,347.29017 1348.8768,328.42965 L 1338.4758,328.44597 z M 1310.5848,352.00529 C 1308.7982,352.00529 1307.0606,351.83398 1305.3639,351.52399 L 1305.372,295.80717 C 1307.0606,295.49718 1308.7982,295.32587 1310.5848,295.32587 C 1312.2979,295.32587 1313.9865,295.48086 1315.618,295.77454 L 1315.618,351.55662 C 1313.9947,351.8503 1312.2979,352.00529 1310.5848,352.00529 z" id="path2448" style="fill:none;stroke:none"/>
      <path d="M 558.70138,390.90918 L 530.55745,390.90918 L 530.55745,332.0435 L 558.70138,332.0435 L 558.70138,390.90918 z" id="path2450" style="fill:#f1471c;fill-opacity:1;fill-rule:nonzero;stroke:none"/>
      <path d="M 517.17888,332.03534 L 488.986,332.03534 L 488.986,364.4702 L 462.66123,332.03534 L 434.53362,332.03534 L 434.53362,390.90918 L 462.59597,390.90918 L 462.59597,358.51511 L 489.37757,390.90918 L 517.17888,390.90918 L 517.17888,332.03534" id="path2454" style="fill:#f1471c;fill-opacity:1;fill-rule:nonzero;stroke:none"/>
      <path d="M 399.65962,332.03534 L 399.65962,332.05166 L 392.99481,332.05166 L 392.99481,370.19688 C 392.99481,373.43547 389.06282,376.07855 384.20901,376.07855 L 375.41505,376.07855 C 370.55309,376.07855 366.61294,373.43547 366.61294,370.19688 L 366.61294,332.05166 L 356.14666,332.05166 C 356.1385,332.05166 356.13034,332.05166 356.12219,332.05166 L 338.63216,332.05166 L 338.63216,342.79529 C 338.58322,343.1216 338.55874,343.47238 338.55874,343.815 L 338.55874,379.13767 C 338.55874,385.63933 346.43088,390.90918 356.14666,390.90918 L 403.62424,390.90918 C 413.34002,390.90918 421.21216,385.63933 421.21216,379.13767 L 421.21216,332.03534 L 399.65962,332.03534" id="path2458" style="fill:#f1471c;fill-opacity:1;fill-rule:nonzero;stroke:none"/>
      <path d="M 648.59064,390.90102 L 676.23695,390.90102 L 646.2086,332.05981 L 613.9369,332.05981 L 583.71277,390.97444 L 611.51407,390.97444 L 615.66632,382.59652 L 644.49549,382.59652 L 648.59064,390.90102 z M 623.01637,367.77405 L 630.1217,353.45736 L 637.19439,367.77405 L 623.01637,367.77405" id="path2462" style="fill:#f1471c;fill-opacity:1;fill-rule:nonzero;stroke:none"/>
      <path d="M 712.80774,390.90102 L 685.52853,390.90102 L 685.52853,332.17402 L 712.80774,332.17402 L 712.80774,390.90102 z" id="path2464" style="fill:#f1471c;fill-opacity:1;fill-rule:nonzero;stroke:none"/>
      <path d="M 795.64879,364.24995 C 802.60727,364.24995 802.46859,356.41044 802.46859,356.41044 L 802.46859,346.26231 C 802.46859,333.38952 788.83714,332.19034 788.83714,332.19034 L 726.10473,332.17403 L 726.10473,390.90103 L 753.40027,390.90103 L 753.40027,370.6374 L 771.51027,370.6374 C 775.29543,370.6374 775.22201,374.4144 775.22201,374.4144 L 775.22201,390.90103 L 802.50938,390.90103 L 802.50938,374.4144 C 802.49307,364.94335 795.64879,364.24995 795.64879,364.24995 z M 772.14657,355.50494 L 753.09027,355.50494 L 753.09027,346.98834 L 772.14657,346.98834 C 774.48782,346.98834 776.39671,348.89723 776.39671,351.23848 C 776.39671,353.6042 774.48782,355.50494 772.14657,355.50494" id="path2468" style="fill:#f1471c;fill-opacity:1;fill-rule:nonzero;stroke:none"/>
      <path d="M 525.53125,89.21875 L 525.53125,96.46875 L 494.1875,96.46875 L 494.1875,104.59375 L 566.53125,104.59375 L 566.53125,96.46875 L 535.6875,96.46875 L 535.6875,89.21875 L 525.53125,89.21875 z M 512.6875,107.21875 L 502.6875,109.84375 L 511.21875,142.25 L 493.5,142.25 L 493.5,150.65625 L 567.1875,150.65625 L 567.1875,142.25 L 549.5,142.25 L 558.75,107.21875 L 548.0625,107.21875 L 538.8125,142.25 L 521.9375,142.25 L 512.6875,107.21875 z" transform="translate(338.559, 241.73)" id="path2472" style="fill:#f1471c;fill-opacity:1;fill-rule:nonzero;stroke:none"/>
      <path d="M 792.96875,88.96875 L 792.96875,93.6875 L 762.59375,93.6875 C 761.43533,93.687502 760.83835,94.2072 760.78125,95.21875 L 760.78125,109.3125 L 770.1875,109.3125 L 770.1875,102.3125 C 770.18753,101.74962 770.50355,101.46875 771.15625,101.46875 L 825.4375,101.46875 C 826.08188,101.46875 826.40625,101.74962 826.40625,102.3125 L 826.40625,109.3125 L 835.8125,109.3125 L 835.8125,95.21875 C 835.75539,94.207203 835.1665,93.6875 834,93.6875 L 803,93.6875 L 803,88.96875 L 792.96875,88.96875 z M 784.9375,105.375 L 781.5625,110.375 C 780.61619,111.78628 779.8584,111.90625 776.1875,111.90625 L 763.0625,111.90625 L 763.09375,119.75 L 783.46875,119.78125 C 786.78894,119.78125 789.3332,117.92596 790.875,114.875 L 796.09375,105.375 L 784.9375,105.375 z M 800.3125,105.375 L 800.3125,114.125 C 800.31249,118.1712 802.63955,119.72414 807.28125,119.78125 L 833.34375,119.78125 L 833.34375,111.90625 L 813.03125,111.90625 C 811.84845,111.90625 811.25,111.39609 811.25,110.34375 L 811.25,105.375 L 800.3125,105.375 z M 764.5625,123.59375 L 764.5625,131.4375 L 792.96875,131.4375 L 792.96875,142.25 L 760.84375,142.25 L 760.84375,150.59375 L 835.96875,150.59375 L 835.96875,142.25 L 802.96875,142.25 L 802.96875,131.4375 L 831.96875,131.4375 L 831.96875,123.59375 L 764.5625,123.59375 z" transform="translate(338.559, 241.73)" id="path2480" style="fill:#f1471c;fill-opacity:1;fill-rule:nonzero;stroke:none"/>
      <path d="M 597.125,89.1875 L 597.125,96.03125 C 597.12497,98.878277 595.86447,101.23782 593.34375,103.1875 C 590.86383,105.28402 587.18401,106.98017 582.28125,108.1875 L 585.9375,112.96875 L 583.90625,112.96875 C 582.73968,112.96875 582.14269,113.4341 582.09375,114.4375 L 582.09375,128.5625 L 591.5625,128.5625 L 591.5625,121.53125 C 591.56251,120.97653 591.87186,120.71875 592.5,120.71875 L 615.09375,120.71875 L 615.09375,124.0625 L 594.625,124.0625 L 594.625,131.3125 L 610.4375,131.3125 C 602.31249,135.30976 592.99891,138.13478 582.5,139.75 L 586.5625,147.1875 C 595.177,145.84965 604.48879,142.56201 615.09375,137.21875 L 615.09375,150.5625 L 624.5,150.5625 L 624.5,137.3125 C 631.48296,141.43212 640.76439,144.57554 651.6875,147.40625 L 657.0625,140.25 C 645.42965,137.97402 635.80763,135.36686 628.90625,131.3125 L 644.78125,131.3125 L 644.78125,124.0625 L 624.5,124.0625 L 624.5,120.71875 L 647.03125,120.71875 C 647.66756,120.71875 647.96875,120.97653 647.96875,121.53125 L 647.96875,128.5625 L 657.40625,128.5625 L 657.40625,114.4375 C 657.34098,113.4341 656.72089,112.96875 655.5625,112.96875 L 653.1875,112.96875 L 656.25,109.375 C 651.07804,106.31588 645.7455,103.52749 640.3125,101.03125 C 640.6959,99.636289 640.91164,98.3174 640.96875,97.09375 L 640.96875,89.1875 L 632,89.1875 L 632,97.09375 C 632.00001,100.64233 629.77474,103.59901 625.3125,105.875 C 623.80335,106.65814 622.01093,107.32027 619.90625,107.875 L 624.3125,112.96875 L 613.75,112.96875 L 617.875,108.53125 C 613.67381,105.81474 609.3956,103.30723 605.03125,101.03125 C 605.74099,99.309979 606.09375,97.65463 606.09375,96.03125 L 606.09375,89.1875 L 597.125,89.1875 z M 647.03125,89.84375 C 646.17471,92.39709 644.48809,95.64005 642,99.53125 L 649.6875,102.375 C 652.10217,98.655112 653.81049,95.31038 654.78125,92.40625 L 647.03125,89.84375 z M 611.75,89.9375 C 610.89344,92.490836 609.24348,95.784 606.8125,99.78125 L 614.46875,102.59375 C 616.56527,99.200162 618.15286,96.16756 619.15625,93.5 C 620.30651,95.612829 621.43675,98.4799 622.5625,102.09375 L 630.625,100.1875 C 629.44217,96.067887 628.06088,92.66756 626.4375,90 L 618.78125,92.1875 L 611.75,89.9375 z M 589.9375,90.09375 L 582.28125,92.84375 C 583.8883,95.127899 585.55998,98.36808 587.28125,102.59375 L 595.1875,100.09375 C 593.57228,96.039386 591.81376,92.72052 589.9375,90.09375 z M 601.25,106.84375 C 604.53752,108.93211 607.45205,110.97828 610.0625,112.96875 L 591.5625,112.96875 C 595.20898,111.3209 598.46824,109.28289 601.25,106.84375 z M 636.9375,106.96875 C 640.60028,109.01633 643.89068,111.01906 646.84375,112.96875 L 628.0625,112.96875 C 629.93874,112.13666 631.60504,111.26418 633,110.375 C 634.4439,109.3716 635.75464,108.23319 636.9375,106.96875 z" transform="translate(338.559, 241.73)" id="path2496" style="fill:#f1471c;fill-opacity:1;fill-rule:nonzero;stroke:none"/>
      <path d="M 687.3125,87.625 C 686.92913,89.060751 686.21675,90.93737 685.15625,93.15625 L 678.15625,93.15625 C 676.52475,93.156247 675.875,93.91064 675.875,95.46875 L 675.875,116.125 L 670.84375,116.5625 L 672.59375,124.0625 L 675.78125,123.75 C 675.60997,133.0579 674.1106,141.2954 671.3125,148.53125 L 681.46875,150.375 C 684.00584,142.87811 685.27845,135.01233 685.34375,126.78125 L 685.34375,122.90625 L 687.375,122.71875 L 687.375,139.53125 L 694.90625,139.53125 L 694.90625,122.03125 L 696.96875,121.84375 L 696.96875,142.21875 C 696.96875,142.60216 696.6715,142.9075 696.125,143.0625 C 695.42343,143.23382 692.7287,142.93123 688.0625,142.15625 L 689.53125,150.40625 C 695.51893,150.69178 699.1867,150.7623 700.5,150.65625 C 701.87869,150.48493 703.1486,149.87425 704.4375,148.96875 C 705.0004,148.57719 705.59375,147.71875 705.59375,147.71875 C 706.31977,147.04166 706.4375,143.0625 706.4375,143.0625 L 706.4375,121 L 710.96875,120.59375 L 709.875,113.09375 L 706.4375,113.40625 L 706.4375,95.3125 C 706.43753,93.640177 705.67095,93.15625 704.03125,93.15625 L 695.40625,93.15625 C 695.78965,92.038647 696.13435,90.97214 696.46875,89.96875 L 687.3125,87.625 z M 723.15625,89.0625 L 723.15625,95.21875 L 708.8125,95.21875 L 708.8125,103.0625 L 746.875,103.0625 L 746.875,95.21875 L 732.96875,95.21875 L 732.96875,89.0625 L 723.15625,89.0625 z M 686.25,100.71875 L 696.03125,100.71875 C 696.64306,100.72691 696.96065,101.02409 696.96875,101.5625 L 696.96875,109.40625 C 696.24275,108.34576 695.5168,107.25214 694.75,106.09375 C 693.35499,104.12776 692.39035,102.79129 691.84375,102 L 685.34375,104.5625 L 685.34375,101.53125 C 685.34378,100.99285 685.6464,100.72691 686.25,100.71875 z M 685.34375,106.3125 C 687.65238,109.64899 689.28605,112.17959 690.28125,113.84375 L 696.96875,111.65625 L 696.96875,114.25 L 685.34375,115.28125 L 685.34375,106.3125 z M 715.96875,106.75 C 715.17744,106.75 714.5625,107.40436 714.5625,108.1875 L 714.5625,139.21875 C 714.48899,140.03452 714.11375,141.06388 712.71875,141.03125 C 712.71872,141.03126 712.44115,141 709.03125,141 L 709.0625,150.5625 C 709.06251,150.5625 716.0063,150.76808 718.625,150.15625 C 718.62498,150.15625 723.98998,149.29954 724.125,140.21875 L 724.125,140.1875 L 724.125,115.4375 C 724.13322,114.88278 724.4669,114.63316 725.0625,114.625 L 730.84375,114.625 C 731.43114,114.63316 731.7174,114.88554 731.75,115.375 L 731.75,141.15625 L 731.78125,141.21875 C 731.86285,148.74827 737.28125,150.15625 737.28125,150.15625 C 739.88356,150.76808 746.875,150.5625 746.875,150.5625 L 746.875,141 C 743.457,141 743.375,141.03125 743.375,141.03125 C 741.80868,141.03126 741.53,140.10919 741.375,139.375 L 741.375,108.6875 L 741.375,108.1875 C 741.37501,107.40436 740.7125,106.75 739.9375,106.75 L 715.96875,106.75 z" transform="translate(338.559, 241.73)" id="path2520" style="fill:#f1471c;fill-opacity:1;fill-rule:nonzero;stroke:none"/>
    </g>
  </g>
</svg>