<svg xmlns="http://www.w3.org/2000/svg" height="800" width="1200" viewBox="-57.19695 -29.56875 495.7069 177.4125"><path d="M381.313 19.868c-.59 1.063-1.049 2.232-1.793 3.174-10.479 13.274-24.13 20.81-40.963 22.645-15.94 1.739-31.304-1.115-46.411-5.812-12.912-4.014-25.687-8.572-39.022-10.977-31.059-5.602-56.829 3.948-77.47 27.68-.565.648-1.094 1.328-1.645 1.989-.031.036-.1.042-.535.213 6.177-11.833 14.876-20.932 25.861-28.45-1.312-.324-2.274-.545-3.229-.801-7.392-1.982-13.61-6.187-19.873-10.361-5.044-3.363-10.04-6.91-15.445-9.59-6.8-3.371-14.138-4.162-21.578-1.86-.762.237-1.492.586-2.215.929-.354.167-.654.438-1.041.706.229.204.37.395.563.493 8.378 4.249 13.571 11.219 16.999 19.74 3.125 7.762 4.336 15.878 4.756 24.404-.313-.23-.508-.304-.599-.446-6.351-10.154-15.838-15.713-27.235-18.248-13.633-3.033-27.157-1.75-40.486 1.865-6.407 1.736-12.638 4.124-19.023 5.959-11.499 3.305-23.15 4.622-34.983 1.8-5.424-1.292-10.417-3.538-14.739-7.102-1.16-.958-2.079-2.21-3.108-3.325.115-.158.231-.315.349-.473.716.338 1.467.619 2.145 1.023 8.13 4.84 16.963 6.33 26.285 5.638 10.928-.812 21.18-4.315 31.439-7.798 7.22-2.45 14.439-4.871 22.053-5.872 14.398-1.89 27.981.566 40.666 7.63 3.335 1.857 6.434 4.139 9.651 6.232-.031.046.093-.062.074-.115-2.942-7.761-6.506-15.17-12.276-21.297-5.665-6.014-12.701-9.326-20.835-10.282-3.11-.366-6.269-.317-9.404-.481-.478-.025-.948-.18-1.424-.275.166-.508.192-1.145.521-1.504 2.814-3.081 6.209-4.586 10.467-3.766 2.193.424 4.417.688 6.626 1.034 2.482.389 4.815.046 7.251-.715C135.879 2.162 140.164.977 144.5.33c7.524-1.125 14.631.69 21.13 4.502 4.691 2.75 9.194 5.829 13.706 8.869 6.815 4.593 13.928 8.383 22.24 9.49 5.026.668 9.963.464 14.795-1.027 20.281-6.258 40.219-5.192 59.967 2.413 10.049 3.87 20.162 7.612 30.391 10.963 10.324 3.382 20.995 4.837 31.894 3.813 13.739-1.292 25.67-6.903 36.405-15.333 1.918-1.506 3.795-3.066 5.69-4.601l.595.449zm-33.633 97.257h-13.353V65.282h3.146c2.926 0 5.852.055 8.774-.025 1.185-.034 1.826.385 2.443 1.389 5.917 9.619 11.892 19.2 17.851 28.793.265.426.553.839 1.194 1.223.041-.634.119-1.27.119-1.902.009-9.005.004-18.011.006-27.017 0-2.458.003-2.46 2.54-2.46h10.699v51.929c-4.18 0-8.238.052-12.295-.062-.528-.016-1.17-.797-1.527-1.368-6.05-9.605-12.06-19.234-18.081-28.855-.394-.628-.82-1.236-1.518-2.286.002 11.067.002 21.666.002 32.484zM155.765 88.954c.738.37 1.181.609 1.635.818 10.427 4.759 9.345 17.424 3.008 22.759-3.748 3.157-8.179 4.39-12.885 4.52-7.678.208-15.361.107-23.042.186-1.54.016-1.23-1.015-1.231-1.874-.01-11.294-.008-22.588-.008-33.882.001-4.873.003-9.746.001-14.62-.001-.82-.099-1.614 1.168-1.59 8.076.156 16.162.078 24.227.484 4.369.22 8.398 1.86 11.22 5.546 4.258 5.566 2.92 13.183-2.95 16.935-.287.183-.575.36-1.143.718zm-14.262 6.1l-.021.182c-1.088 0-2.18.053-3.263-.015-1.154-.07-1.646.305-1.618 1.545.07 3.032.064 6.069.002 9.1-.025 1.228.472 1.602 1.626 1.564 1.943-.062 3.907.132 5.833-.071 1.791-.19 3.673-.48 5.28-1.227 2.513-1.17 2.71-3.621 2.455-6.067-.23-2.224-1.454-3.756-3.677-4.2-2.172-.432-4.409-.553-6.617-.81zm-4.819-9.77c3.301-.274 6.399-.32 9.412-.855 2.156-.384 3.218-2.21 3.209-4.321-.008-2.221-1.112-3.994-3.372-4.363-3.002-.49-6.079-.522-9.249-.761v10.3zm36.64-19.889h13.445c.032.693.092 1.357.092 2.02.007 9.752-.004 19.504.013 29.256.002 1.2.065 2.41.218 3.6.115.903.316 1.82.654 2.663 1.295 3.228 4.758 4.887 9.373 4.57 4.252-.29 6.995-2.252 7.776-5.786.344-1.552.463-3.181.471-4.775.041-9.866.06-19.733-.017-29.6-.012-1.668.452-2.166 2.116-2.1 3.205.13 6.423.034 9.632.043.615 0 1.23.05 1.927.08.043.582.107 1.026.107 1.47-.027 10.784 0 21.567-.105 32.349-.112 11.507-7.662 17.305-17.801 18.703-5.595.77-11.128.469-16.428-1.62-7.795-3.07-11.455-9.085-11.558-17.252-.136-10.897-.035-21.797-.028-32.695.001-.276.066-.55.113-.926zm95.842 15.841h-12.322c-.113-.606-.078-1.241-.344-1.704-.69-1.201-1.262-2.723-2.333-3.407-3.084-1.971-6.471-1.87-9.637-.115-2.736 1.517-2.734 4.322.062 5.702 2.656 1.31 5.545 2.14 8.313 3.235 3.456 1.369 6.995 2.585 10.319 4.23 10.403 5.15 9.352 18.828 1.854 24.659-4.2 3.27-9.098 4.246-14.205 4.38-5.396.143-10.645-.626-15.356-3.555-4.52-2.808-7.067-6.913-7.912-12.12-.072-.45-.074-.913-.08-1.371-.002-.276.05-.552.089-.933h12.021c2.617 6.608 7.989 9.154 14.313 6.778a7.84 7.84 0 001.537-.757c2.256-1.483 2.416-3.801.21-5.325-1.396-.963-3.01-1.641-4.585-2.305-4.484-1.891-9.123-3.455-13.472-5.613-7.128-3.54-9.899-9.595-7.985-16.927 1.441-5.52 5.537-8.536 10.65-10.305 6.43-2.224 12.836-2.027 19.134.604 6.202 2.593 9.825 8.057 9.729 14.849zm5.102 36.041c2.464-6.45 4.78-12.543 7.114-18.63 4.061-10.586 8.154-21.16 12.17-31.763.465-1.23 1.063-1.661 2.36-1.63 3.495.083 6.992.048 10.49.012.9-.008 1.447.19 1.809 1.134 6.335 16.522 12.707 33.029 19.063 49.542.138.36.19.755.331 1.333-4.53 0-8.93.026-13.328-.05-.355-.005-.854-.654-1.016-1.103a190.008 190.008 0 01-2.689-7.975c-.328-1.07-.894-1.396-1.981-1.386-5.044.05-10.089.055-15.133-.005-1.182-.013-1.725.377-2.063 1.51-.785 2.634-1.68 5.236-2.619 7.818-.175.477-.767 1.134-1.176 1.14-4.346.084-8.695.053-13.332.053zm32.12-21.116c-1.789-5.185-3.475-10.065-5.158-14.946l-.494.007c-1.667 4.913-3.333 9.825-5.065 14.939h10.717zM85.456 94.149l13.62 23.11c-2.359 0-4.394.092-6.41-.063-.484-.037-1.013-.822-1.339-1.373-3.781-6.354-7.556-12.712-11.257-19.113-.744-1.29-1.568-1.936-3.122-1.8-1.65.146-3.331.127-4.984.005-1.623-.12-2.192.387-2.165 2.093.1 5.964.039 11.93.039 17.895v2.216h-5.557V65.514c.318-.09.532-.206.746-.202 5.959.108 11.934-.003 17.873.408 7.05.486 11.881 4.89 12.998 11.229 1.305 7.4-1.9 13.377-8.808 16.43-.464.204-.921.43-1.634.77zM69.838 80.012c0 2.868.012 5.735-.006 8.602-.005.844.13 1.478 1.192 1.442 3.549-.121 7.125.013 10.642-.378 5.063-.563 8.305-4.3 8.494-9.254.2-5.223-2.259-8.692-7.579-9.615-3.806-.66-7.751-.516-11.636-.728-1.127-.062-1.107.726-1.107 1.5.003 2.81.002 5.62 0 8.43zm-29.091 37.262c-1.786 0-3.438.082-5.072-.056-.419-.036-.962-.701-1.135-1.188-1.307-3.668-2.584-7.348-3.756-11.06-.353-1.116-.832-1.552-2.032-1.54a867.17 867.17 0 01-16.684.005c-1.108-.011-1.598.378-1.938 1.433-1.179 3.65-2.515 7.249-3.691 10.9-.385 1.193-.988 1.638-2.224 1.542-1.306-.101-2.626-.022-4.215-.022.924-2.75 1.771-5.318 2.646-7.877 4.802-14.032 9.631-28.056 14.387-42.104.514-1.517 1.196-2.335 2.879-2.04.558.099 1.152.074 1.717.003 1.104-.135 1.639.35 1.985 1.38 2.959 8.794 5.959 17.572 8.949 26.354 2.583 7.59 5.168 15.178 7.749 22.769.145.423.251.86.435 1.5zM12.163 98.357h16.566l-8.102-25.531-.426-.02-8.038 25.55zM52.94 65.282v2.242c0 15.832.002 31.662 0 47.493 0 2.202-.004 2.202-2.269 2.204-3.619.005-3.62.005-3.62-3.625 0-15.085-.011-30.171.008-45.255.004-3.597-.438-2.992 3.136-3.058.841-.015 1.683-.001 2.745-.001z" fill="#120B7C" clip-rule="evenodd" fill-rule="evenodd"/></svg>