<svg xmlns="http://www.w3.org/2000/svg" height="800" width="1200" viewBox="-16.665 -5.225 144.43 31.35"><path d="M95.9 6.1c0 .2 0 .4.1.6.4.9 1.3 1.5 2.5 1 .3-.1 8.3-3.3 8.3-3.3s-3.1 8-3.3 8.3c-.5 1.1.1 2.2 1 2.5.2.1.4.1.6.1.8 0 1.4-.5 1.8-1.3.1-.1 4-10.9 4.1-11.2 0-.2.1-.5.1-.8 0-.5-.2-1-.6-1.4-.4-.4-.9-.6-1.4-.6-.3 0-.5 0-.8.1-.1.1-10.2 3.9-11.1 4.2-.9.3-1.3 1-1.3 1.8" fill="#e41e26"/><path d="M6.1 20.7l-.6-1.9H2.3l-.6 1.9H0l3-9h1.8l3 9zm-2.2-7l-1.1 3.7h2.3zm10.6 5.8c-.6 1.1-1.7 1.4-2.9 1.4-1.5 0-2.9-.6-3.4-2.2-.1-.3-.1-.7-.1-1h1.7c0 .2.1.5.2.7.3.7.9 1 1.7 1 .6 0 1.4-.2 1.4-1 0-.2 0-.3-.1-.4-.2-.4-.9-.6-1.3-.8-.8-.3-1.7-.7-2.4-1.2-.6-.5-.9-1.1-.9-1.9 0-1.7 1.5-2.6 3.1-2.6 1.1 0 2.3.5 2.8 1.6.2.4.2.8.3 1.2h-1.7c0-.8-.7-1.3-1.5-1.3-.6 0-1.3.3-1.3 1 0 .6.8.9 1.3 1.1.8.3 1.8.6 2.5 1.1.7.5.9 1.1.9 1.9 0 .5-.1 1-.3 1.4m1.5-7.8h1.7v9H16zm8.7 9l-.6-1.9h-3.2l-.6 1.9h-1.8l3-9h1.8l3.1 9zm-2.2-7l-1.1 3.7h2.3zm10 7l-3.8-6.3v6.3h-1.6v-9h1.8l3.7 6.3v-6.3h1.6v9zm8.4 0l-.6-1.9h-3.2l-.6 1.9h-1.8l3-9h1.8l3.1 9zm-2.1-7l-1.1 3.7H40zm14 7l-.6-1.9H49l-.6 1.9h-1.8l3-9h1.8l3 9zm-2.2-7l-1.1 3.7h2.3zm4.9-2h1.7v9h-1.7zm8.1 9l-1.8-3.4h-1.2v3.4h-1.7v-9h2.4c.7 0 1.5 0 2.2.2 1.1.4 1.7 1.3 1.7 2.5 0 1.1-.5 2-1.6 2.5l2.1 3.7h-2.1zm-.9-7.3c-.4-.2-.9-.2-1.3-.2h-.8v2.6h1.1c.9 0 1.7-.3 1.7-1.3 0-.5-.3-.9-.7-1.1m3.8 7.3v-9h1.7v7.5h3.9v1.5zm6.6-9h1.7v9h-1.7zm8.7 9l-3.7-6.3v6.3h-1.7v-9h1.9l3.6 6.3v-6.3h1.6v9zm3.3 0v-9h5.6v1.5h-3.9v2.1h3.6v1.5h-3.6v2.4h4.1v1.5zm12.7-1.2c-.6 1.1-1.7 1.4-2.9 1.4-1.5 0-2.9-.6-3.4-2.2-.1-.3-.1-.7-.1-1h1.7c0 .2.1.5.2.7.3.7 1 1 1.7 1 .6 0 1.4-.2 1.4-1 0-.2-.1-.3-.1-.4-.2-.4-.9-.7-1.3-.8-.8-.3-1.7-.7-2.4-1.2-.6-.5-.9-1.1-.9-1.9 0-1.7 1.5-2.6 3.1-2.6 1.1 0 2.3.5 2.8 1.6.2.4.2.8.3 1.2h-1.7c0-.8-.7-1.3-1.5-1.3-.6 0-1.3.3-1.3 1 0 .6.8.9 1.3 1.1.8.3 1.8.6 2.5 1.1.7.5.9 1.1.9 1.9 0 .5-.1 1-.3 1.4" fill="#737272"/></svg>