<svg xmlns="http://www.w3.org/2000/svg" height="800" width="1200" viewBox="-4.200195 -2.919575 36.40169 17.51745"><path d="M15.79 2.6211h-.9215c-.1951 0-.5133.1207-.5853.5013-.1997 1.021-.3238 2.1407-.465 3.1398-.1294-.9511-.34-2.2247-.5298-3.2047-.0554-.2332-.272-.4364-.5892-.4364h-.9366c-.3171 0-.534.2032-.5891.4364-.2329.9864-.412 2.2465-.5317 3.194-.14-.9962-.2642-2.1117-.4632-3.129-.072-.3807-.3898-.5014-.5852-.5014h-.9215c-.2635 0-.6604.1958-.6156.6693.1814 1.6308.6431 3.751 1.1755 5.6776.0836.3556.3693.4903.6092.4903l1.2129-.0003c.3722 0 .5676-.2981.6036-.495L12.219 6.4h.0237l.5616 2.563c.036.1969.2314.495.6036.495l1.2125.0003c.2399 0 .5256-.1347.6092-.4903.5327-1.9266.9945-4.0468 1.1758-5.6776.0448-.4735-.352-.6693-.6156-.6693M.8844 1.2284A.6155.6155 0 011.5.6128h1.124c.34 0 .6156.2755.6156.6156V2.621h.5944c.2328 0 .422.1891.422.4223v.6848a.4219.4219 0 01-.422.4215h-.5944v3.223c0 .3916.2465.5302.5944.5302.2328 0 .422.1891.422.4223v.7116a.4219.4219 0 01-.422.4215c-.3288.0243-.6692.0367-.9186.0367-1.3201 0-2.031-.8078-2.031-2.3237V4.1497H.422A.4219.4219 0 010 3.7282v-.6848c0-.2332.189-.4222.422-.4222h.4624m25.0214.4885a.6156.6156 0 01.6022-.4886h.8777a.6154.6154 0 01.6078.7137c-.3111 1.904-.991 4.258-1.61 6.2826-.472 1.542-1.0877 2.061-2.2518 2.061-.285 0-.5959-.005-.84-.018a.4214.4214 0 01-.4216-.422v-.7302c0-.2332.1888-.422.422-.422l-.0011-.0003.0592.0007c.5398 0 .7222-.3789.7197-.5179-.0032-.2261-.0476-.3284-.0956-.5055-.4304-1.3787-.9423-3.5726-1.3829-5.6991a.6153.6153 0 01.6018-.743h.8986a.616.616 0 01.5954.459c.2318.852.472 2.4627.6619 3.4523h.024c.1643-1.1053.3598-2.6321.5326-3.4227m-7.4685 6.4305c-1.1384 0-1.8743-.7634-1.8743-1.9449 0-1.217.8453-2.0034 2.66-2.4744.412-.098.5873-.2967.5873-.6646 0-.26-.1838-.4484-.4374-.4484-.2283 0-.394.1182-.4431.3165-.0868.3534-.3256.5182-.7514.5182h-.5962c-.4255 0-.69-.2582-.69-.6742 0-.0705.0105-.139.0313-.2035.3842-1.3081 1.6997-1.5036 2.45-1.5036.8602 0 1.4542.1394 1.8695.4389.4864.351.739.9327.7725 1.7787.043 1.005.0766 3.006.013 4.1092 0 .3675-.3093.6699-.6896.6699h-.7782c-.3539 0-.6315-.2575-.6851-.6304-.296.4554-.81.7126-1.4383.7126m1.414-3.131c-.0935.0766-.2191.1394-.3493.205-.308.1542-.6569.3292-.7024.73-.0204.1756.0208.3252.1189.4324a.4613.4613 0 00.3348.1482c.3591 0 .598-.1633.598-.9592" fill="#c82f26"/><path d="M7.177.8047L7.1486.7472V.7468C6.919.3034 6.4565 0 5.9224 0c-.762 0-1.38.6177-1.38 1.38 0 .4414.2074.834.5298 1.0866v.0004c.3934.3051.7963.8805-.1541 1.7748-.1792.1873-.0512.334.0691.412.2907.1888.4837.161.7934 0C6.578 4.2398 8.0208 2.563 7.177.8048" fill="#79a23d"/></svg>