<?xml version="1.0" encoding="utf-8"?>
<!-- Generator: Adobe Illustrator 23.0.0, SVG Export Plug-In . SVG Version: 6.00 Build 0)  -->
<svg version="1.1" id="Layer_1" xmlns="http://www.w3.org/2000/svg" xmlns:xlink="http://www.w3.org/1999/xlink" x="0px" y="0px"
	 viewBox="0 0 300 300" style="enable-background:new 0 0 300 300;" xml:space="preserve">
<style type="text/css">
	.st0{fill:#010101;}
	.st1{fill:#FFFFFF;}
	.st2{fill:#F68B21;}
	.st3{fill:#0A6FB0;}
</style>
<g>
	<g>
		<path class="st2" d="M103.64,152.06l-3.79,1.92c-1.61,9.1-10.78,14.31-18.23,14.31c-7.21,0-14.06-4.05-15.78-11.17
			c9.6-0.55,18.88-3.04,25.76-5.39c6.87-2.34,11.34-4.55,11.34-4.55c-2.84-10.61-12.45-17.61-22.94-17.61
			c-2.03,0-4.09,0.27-6.15,0.81c-12.67,3.4-20.19,16.42-16.79,29.09c0.3,1.1,0.69,2.14,1.12,3.16c4.55,10.72,16.4,16.74,27.97,13.64
			C96.64,173.45,104.2,163.57,103.64,152.06z M85.82,140.78c4.16-1.31,6.94,2.96,7.09,3.19c-0.21-0.05-3.25-0.81-6.04,0.05
			c-2.95,0.9-4.77,3.41-4.77,3.41S81.4,142.18,85.82,140.78z M72.19,143.61c1.86,0,3.36,1.5,3.36,3.36c0,1.86-1.5,3.36-3.36,3.36
			c-1.86,0-3.36-1.5-3.36-3.36C68.83,145.11,70.33,143.61,72.19,143.61z"/>
	</g>
	<path class="st3" d="M157.03,132.02c2.85-1.7,6.02-2.55,9.54-2.55v12.63h-3.43c-8.64,0-12.96,4.01-12.96,12.04v22.33h-11.79v-46.33
		h2.93c4.89,0,8.86,3.97,8.86,8.86l0,0C151.9,136.05,154.19,133.73,157.03,132.02z"/>
	<path class="st3" d="M173.76,112.21c1.34-1.2,3.1-1.8,5.27-1.8c2.17,0,3.93,0.6,5.27,1.8c1.34,1.2,2.01,2.75,2.01,4.64
		c0,1.84-0.67,3.36-2.01,4.56c-1.34,1.2-3.1,1.8-5.27,1.8c-2.17,0-3.93-0.6-5.27-1.8c-1.34-1.2-2.01-2.72-2.01-4.56
		C171.75,114.95,172.42,113.4,173.76,112.21z M184.88,130.15v46.33h-11.79v-46.33H184.88z"/>
	<path class="st3" d="M233.81,132.4c3.12,1.9,5.56,4.64,7.32,8.24c1.76,3.6,2.64,7.82,2.64,12.67c0,4.85-0.88,9.07-2.64,12.67
		c-1.75,3.6-4.19,6.34-7.32,8.24c-3.12,1.9-6.63,2.84-10.54,2.84c-3.9,0-7.23-0.93-9.99-2.8c-2.76-1.87-4.73-4.36-5.9-7.49v28.31
		h-11.79v-64.94h11.79v9.61c1.17-3.12,3.13-5.6,5.9-7.44c2.76-1.84,6.09-2.76,9.99-2.76C227.17,129.56,230.68,130.51,233.81,132.4z
		 M210.76,143.48c-2.31,2.43-3.47,5.7-3.47,9.83c0,4.07,1.16,7.32,3.47,9.74c2.31,2.43,5.26,3.64,8.82,3.64
		c3.68,0,6.63-1.19,8.87-3.55c2.23-2.37,3.34-5.65,3.34-9.83s-1.12-7.47-3.34-9.87c-2.23-2.4-5.19-3.6-8.87-3.6
		C216.02,139.85,213.08,141.06,210.76,143.48z"/>
	<g>
		<polygon class="st3" points="125.77,127.04 113.98,129.73 113.98,177.07 125.77,177.06 		"/>
	</g>
	<path class="st2" d="M143.64,113.68c-1.98-2.05-4.12-2-7.87-0.98l-8.67,2.32l-27.61-10.11l-3.22,0.86l17.23,12.89l-11.08,2.97
		l-8.1-2.96l-2.79,0.75l8.34,9.27l48.35-12.95C148.22,115.74,147.54,113.32,143.64,113.68z"/>
</g>
</svg>
