<?xml version="1.0" encoding="utf-8"?>
<!-- Generator: Adobe Illustrator 23.0.0, SVG Export Plug-In . SVG Version: 6.00 Build 0)  -->
<svg version="1.1" id="Layer_1" xmlns="http://www.w3.org/2000/svg" xmlns:xlink="http://www.w3.org/1999/xlink" x="0px" y="0px"
	 viewBox="0 0 500 200" style="enable-background:new 0 0 500 200;" xml:space="preserve">
<style type="text/css">
	.st0{fill:#010101;}
	.st1{fill:#FFFFFF;}
	.st2{fill:#F68B21;}
	.st3{fill:#0A6FB0;}
</style>
<g>
	<rect class="st0" width="500" height="200"/>
</g>
<g>
	<g>
		<path class="st1" d="M294.88,102.06l-3.79,1.92c-1.61,9.1-10.78,14.31-18.23,14.31c-7.21,0-14.06-4.05-15.78-11.17
			c9.6-0.55,18.88-3.04,25.76-5.39c6.87-2.34,11.34-4.55,11.34-4.55c-2.84-10.61-12.45-17.61-22.94-17.61
			c-2.03,0-4.09,0.27-6.15,0.81c-12.67,3.4-20.19,16.42-16.79,29.09c0.3,1.1,0.69,2.14,1.12,3.16c4.55,10.72,16.4,16.74,27.97,13.64
			C287.88,123.45,295.44,113.57,294.88,102.06z M277.07,90.78c4.16-1.31,6.94,2.96,7.09,3.19c-0.21-0.05-3.25-0.81-6.04,0.05
			c-2.95,0.9-4.77,3.41-4.77,3.41S272.64,92.18,277.07,90.78z M263.43,93.61c1.86,0,3.36,1.5,3.36,3.36c0,1.86-1.5,3.36-3.36,3.36
			s-3.36-1.5-3.36-3.36C260.07,95.11,261.57,93.61,263.43,93.61z"/>
	</g>
	<path class="st1" d="M105.14,118.66c-1.51,2.54-3.73,4.57-6.69,6.11c-2.96,1.53-6.55,2.3-10.79,2.3c-4.18,0-7.92-0.71-11.21-2.13
		c-3.29-1.42-5.92-3.47-7.9-6.15c-1.98-2.68-3.11-5.79-3.39-9.36h12.55c0.28,2.4,1.24,4.39,2.89,5.98c1.65,1.59,3.83,2.38,6.56,2.38
		c2.45,0,4.33-0.65,5.64-1.96c1.31-1.31,1.97-2.99,1.97-5.06c0-1.84-0.53-3.36-1.59-4.56c-1.06-1.2-2.4-2.16-4.01-2.89
		c-1.62-0.72-3.85-1.56-6.69-2.51c-3.68-1.23-6.69-2.44-9.03-3.64c-2.34-1.2-4.34-2.94-5.98-5.23C65.82,89.65,65,86.67,65,82.99
		c0-5.08,1.83-9.08,5.48-12c3.65-2.93,8.49-4.39,14.51-4.39c6.24,0,11.22,1.51,14.93,4.52c3.71,3.01,5.81,7.02,6.32,12.04H93.52
		c-0.33-2.12-1.23-3.86-2.68-5.23c-1.45-1.37-3.43-2.05-5.94-2.05c-2.17,0-3.93,0.57-5.27,1.72s-2.01,2.8-2.01,4.97
		c0,1.73,0.51,3.17,1.54,4.31c1.03,1.14,2.34,2.08,3.93,2.8s3.75,1.53,6.48,2.43c3.79,1.34,6.87,2.59,9.24,3.76
		c2.37,1.17,4.39,2.93,6.06,5.27s2.51,5.41,2.51,9.2C107.4,113.35,106.65,116.12,105.14,118.66z"/>
	<path class="st1" d="M188.39,84.7c3.26,3.48,4.89,8.43,4.89,14.84v26.93h-11.71v-25.59c0-3.57-0.91-6.32-2.72-8.24
		c-1.81-1.92-4.31-2.89-7.49-2.89c-3.29,0-5.91,1.03-7.86,3.1c-1.95,2.07-2.93,5.08-2.93,9.03v24.59h-11.71v-25.59
		c0-3.57-0.91-6.32-2.72-8.24c-1.81-1.92-4.31-2.89-7.49-2.89c-3.29,0-5.91,1.03-7.86,3.1c-1.95,2.07-2.93,5.08-2.93,9.03v24.59
		H116.1V80.15h3.01c4.85,0,8.78,3.93,8.78,8.78v0c1.23-3.01,3.17-5.34,5.81-6.98c2.64-1.65,5.73-2.47,9.24-2.47
		c3.73,0,6.98,0.89,9.74,2.68c2.76,1.79,4.84,4.35,6.23,7.69c1.45-3.18,3.61-5.7,6.48-7.57c2.87-1.87,6.09-2.8,9.66-2.8
		C180.69,79.48,185.14,81.22,188.39,84.7z"/>
	<path class="st1" d="M204.33,62.21c1.34-1.2,3.09-1.8,5.27-1.8c2.17,0,3.93,0.6,5.27,1.8c1.34,1.2,2.01,2.75,2.01,4.64
		c0,1.84-0.67,3.36-2.01,4.56c-1.34,1.2-3.1,1.8-5.27,1.8c-2.17,0-3.93-0.6-5.27-1.8c-1.34-1.2-2.01-2.72-2.01-4.56
		C202.32,64.95,202.99,63.4,204.33,62.21z M215.45,80.15v46.33h-11.79V80.15H215.45z"/>
	<path class="st1" d="M237.94,76.38v50.09h-11.79V64.59h0C232.67,64.59,237.94,69.87,237.94,76.38z"/>
	<path class="st1" d="M348.27,82.02c2.85-1.7,6.02-2.55,9.54-2.55v12.63h-3.43c-8.64,0-12.96,4.01-12.96,12.04v22.33h-11.79V80.15
		h2.93c4.89,0,8.86,3.97,8.86,8.86v0C343.15,86.05,345.43,83.73,348.27,82.02z"/>
	<path class="st1" d="M365,62.21c1.34-1.2,3.1-1.8,5.27-1.8s3.93,0.6,5.27,1.8c1.34,1.2,2.01,2.75,2.01,4.64
		c0,1.84-0.67,3.36-2.01,4.56c-1.34,1.2-3.1,1.8-5.27,1.8s-3.93-0.6-5.27-1.8c-1.34-1.2-2.01-2.72-2.01-4.56
		C362.99,64.95,363.66,63.4,365,62.21z M376.12,80.15v46.33h-11.79V80.15H376.12z"/>
	<path class="st1" d="M425.05,82.4c3.12,1.9,5.56,4.64,7.32,8.24c1.76,3.6,2.64,7.82,2.64,12.67s-0.88,9.07-2.64,12.67
		c-1.75,3.6-4.19,6.34-7.32,8.24c-3.12,1.9-6.63,2.84-10.54,2.84c-3.9,0-7.23-0.93-9.99-2.8c-2.76-1.87-4.73-4.36-5.9-7.49v28.31
		h-11.79V80.15h11.79v9.61c1.17-3.12,3.13-5.6,5.9-7.44c2.76-1.84,6.09-2.76,9.99-2.76C418.41,79.56,421.93,80.51,425.05,82.4z
		 M402.01,93.48c-2.31,2.43-3.47,5.7-3.47,9.83c0,4.07,1.16,7.32,3.47,9.74c2.31,2.43,5.26,3.64,8.82,3.64
		c3.68,0,6.63-1.19,8.87-3.55c2.23-2.37,3.34-5.65,3.34-9.83c0-4.18-1.12-7.47-3.34-9.87c-2.23-2.4-5.19-3.6-8.87-3.6
		C407.26,89.85,404.32,91.06,402.01,93.48z"/>
	<g>
		<polygon class="st1" points="317.02,77.04 305.22,79.73 305.22,127.07 317.02,127.06 		"/>
	</g>
	<path class="st1" d="M334.88,63.68c-1.98-2.05-4.12-2-7.87-0.98l-8.67,2.32l-27.61-10.11l-3.22,0.86l17.23,12.89l-11.08,2.97
		l-8.1-2.96l-2.79,0.75l8.34,9.27l48.35-12.95C339.46,65.74,338.78,63.32,334.88,63.68z"/>
</g>
</svg>
