<svg xmlns="http://www.w3.org/2000/svg" height="800" width="1200" viewBox="-32.95269 -10.124175 285.58998 60.74505"><g fill="#ed1d24"><path d="M51.4231 20.2H37.7456c-.13 3.145 1.0813 5.4088 4.5175 5.4088 2.4525 0 4.8988-.7663 6.1813-1.4l.6487 4.37c-1.8912.9812-4.9037 1.8-8.335 1.8-5.85 0-9.2825-3.4638-9.2825-9.3163 0-3.555 1.1538-7.6075 3.1375-10.4775 2.23-3.29 5.6225-5.3562 9.83-5.3562 5.1213 0 7.9938 3.1412 7.9938 8.535 0 1.3562-.3625 4.3512-1.0138 6.4362M43.6306 9.325c-1.9275 0-3.56 1.395-4.685 3.7663-.4612 1.0412-.5425 1.325-.8537 2.6075h8.0662c.185-.7125.3563-1.8813.3563-2.6488 0-2.43-1.0363-3.725-2.8838-3.725M8.9025 37.0923h-6.05L0 5.8973h6.6137l1.215 21.2075 9.3038-21.2075h6.8362zm57.1347-26.6919H62.451L59.9322 23.089c-.0787.3688-.49 2.5738 1.6338 2.6875.6.0463 1.4887-.1187 1.88-.3012 0 0-1.0375 4.9037-5.74 4.9037-3.6375 0-5.2975-2.8675-4.445-7.1575l4.2275-21.0662s2.39-2.8288 7.0337-2.005c-.8037 3.98-1.17 5.7475-1.17 5.7475l3.58-.0088zm44.4912 0h-3.59l-2.5238 12.6887c-.08.3688-.485 2.5738 1.6413 2.6875.595.0463 1.4837-.1187 1.8737-.3012 0 0-1.035 4.9037-5.7375 4.9037-3.6325 0-5.2925-2.8675-4.4325-7.1575l4.2138-21.0662s2.4-2.8288 7.045-2.005c-.81 3.98-1.18 5.7475-1.18 5.7475l3.5962-.0088zM95.9192 20.2H82.2405c-.135 3.145 1.0762 5.4088 4.5112 5.4088 2.4438 0 4.895-.7663 6.1788-1.4l.6562 4.37c-1.8937.9812-4.9037 1.8-8.35 1.8-5.8312 0-9.2662-3.4638-9.2662-9.3163 0-3.555 1.145-7.6075 3.1275-10.4775 2.2387-3.29 5.635-5.3562 9.8425-5.3562 5.1187 0 7.9962 3.1412 7.9962 8.535 0 1.3562-.365 4.3512-1.0175 6.4362M88.123 9.325c-1.93 0-3.57 1.395-4.6825 3.7663-.4763 1.0412-.5513 1.325-.8563 2.6075h8.0563c.1912-.7125.3625-1.8813.3625-2.6488 0-2.43-1.0313-3.725-2.88-3.725m70.5585 1.1665c-1.5863-.6375-3.3163-.6837-4.4238-.185l-3.9112 19.84h-6.5875l4.5562-22.8875c2.77-1.5875 7.9213-2.5175 11.955-1.7737zm-32.1838 26.6008l.0663-6.9513h-9.1263l-3.6838 6.9513h-6.5375l17.9-31.195h6.8238l1.1675 31.195h-6.61zm.2163-24.2613l-6.875 12.8088h6.73z"/><path d="M59.7827 40.4967c-5.9137 0-9.1512-4.0375-8.6737-8.255 2.9287 3.5475 8.3762 3.5575 11.625.58 1.1987-1.08 2.18-2.8238 2.9875-7.01 1.3987-7.14 3.9975-19.9138 3.9975-19.9138h6.6237l-4.5862 22.8375c-1.5138 7.1238-6.055 11.7613-11.9738 11.7613M26.9134 30.1406H20.302l4.85-24.2425h6.6225zm113.7295 0h-6.6225l4.865-24.2425h6.6287zm15.1433.2383c-1.0975 0-1.8612-.8225-1.8612-1.8738 0-1.4212 1.2987-2.7887 2.7362-2.7887 1.095 0 1.8863.8012 1.8863 1.8762 0 1.4163-1.3363 2.7863-2.7613 2.7863m16.5519-14.6451c-.3275-.2638-.9975-.6075-1.795-.6075-1.3137 0-2.4925.7737-3.38 2.4237-.845 1.5063-1.3862 3.8463-1.3862 5.5838 0 2.2137.8687 3.3837 2.245 3.3837.8975 0 1.8475-.3325 2.3312-.695l.4138 3.205c-.8263.7363-2.3 1.34-4.2913 1.34-3.3512 0-5.7525-2.6725-5.7525-6.9275 0-2.6462.965-5.8275 2.4013-7.97 1.7275-2.54 4.1612-3.8162 6.6512-3.8162 1.9513 0 3.5925.7375 4.1575 1.3337z"/><path d="M185.3735 26.3571c-1.595 2.4763-4.0338 4.01-7.2913 4.01-4.085 0-6.2-2.7375-6.2-6.66 0-2.6437.9275-5.9287 2.33-8.0725 1.6288-2.515 4.0913-3.9812 7.2525-3.9812 4.0988 0 6.2475 2.7075 6.2475 6.6312 0 2.6488-.9675 5.9238-2.3387 8.0725m-4.3188-11.4587c-1.34 0-2.3025 1.0762-2.9725 2.6787-.735 1.7125-1.3775 4.7838-1.3775 6.6313 0 1.54.4413 2.6125 1.8538 2.6125 1.3862 0 2.2712-.9988 2.94-2.6125.7162-1.71 1.4075-4.8213 1.4075-6.6588 0-1.5437-.4788-2.6512-1.8513-2.6512m33.0779 2.663l-2.49 12.6437h-5.0312l2.5512-12.8125c.0275-.235.065-.4325.065-.6662 0-1.0513-.62-1.8-2.1037-1.8-.9025 0-1.7975.405-2.4175.9525l-2.8375 14.3262h-5.0338l2.5525-12.8512c.03-.2313.0663-.4263.0663-.6275 0-1.1213-.7775-1.8-2.2913-1.8-.8187 0-1.495.1387-2.1375.3712l-2.9362 14.9075h-5.0238l3.4188-17.2c2.0562-.8812 4.4225-1.3512 7.315-1.3512 2.2975 0 4.16.81 4.975 1.8237 1.1562-.9475 3.3512-1.8237 6.2212-1.8237 3.5238 0 5.2638 1.8875 5.2638 4.59 0 .4325-.0338.8787-.1263 1.3175m4.3485 11.8779c-.0425-.045-.0712-.1063-.0875-.165-.0212-.0575-.0362-.1338-.0487-.2013a1.345 1.345 0 01-.0175-.2137c-.0038-.0775-.005-.1375-.0113-.2188-.005-.0725-.02-.1362-.035-.2087-.0137-.06-.0387-.1225-.065-.18-.0337-.05-.0737-.0988-.1262-.1388-.0475-.0337-.1138-.0612-.19-.0712h-.0025c.1662-.0475.2912-.1488.37-.2775.0737-.1313.115-.295.115-.47 0-.2388-.0788-.43-.2263-.57-.15-.1388-.365-.2075-.635-.2075h-1.3187v2.9375h.39v-1.245h.8987c.09 0 .1538.0162.2113.0425.055.035.0962.065.1262.1112.035.0463.065.1013.0738.1638.02.0675.0337.1287.0425.2025.0125.0662.025.1387.025.2162l.0062.2063c.0038.065.005.1225.0225.17.0063.06.025.0962.0625.1325h.4275zm-1.8887-2.575h.915c.1662 0 .2912.05.365.1337.0775.095.12.2113.12.3588 0 .1-.0163.1912-.0513.25-.0387.0637-.0837.12-.1362.1575-.0588.035-.1263.07-.2025.0775-.0813.0175-.16.0212-.2425.0212h-.7675z"/><path d="M217.2921 30.4939c-1.3212 0-2.3962-1.1225-2.3962-2.5088 0-1.38 1.075-2.5 2.3962-2.5 1.32 0 2.3925 1.12 2.3925 2.5 0 1.3863-1.0725 2.5088-2.3925 2.5088m0-4.6413c-1.1275 0-2.0362.96-2.0362 2.1325 0 1.1825.9087 2.1325 2.0362 2.1325 1.1238 0 2.0338-.95 2.0338-2.1325 0-1.1725-.91-2.1325-2.0338-2.1325"/></g></svg>